<svg width="193" height="193" viewBox="0 0 193 193" fill="none" xmlns="http://www.w3.org/2000/svg">
<rect width="192.379" height="192.379" rx="40" fill="#4896AE"/>
<path d="M120.521 52.1079L124.835 44.0408C125.686 42.5199 126.115 40.7988 126.076 39.0562C126.038 37.3137 125.533 35.6133 124.615 34.1318C123.854 32.8835 122.789 31.8494 121.519 31.127C120.248 30.4047 118.815 30.0178 117.353 30.0031H116.624C113.055 30.0031 109.846 32.3106 108.521 35.8298L105.095 45.5207C110.686 46.4653 115.974 48.7226 120.523 52.1072L120.521 52.1079Z" fill="#D18D78"/>
<path d="M118.61 34.1328C117.525 32.4017 115.867 31.1052 113.926 30.468C112.686 30.91 111.559 31.6198 110.625 32.5468C109.691 33.4738 108.973 34.5954 108.521 35.8316L105.095 45.5229C108.917 46.1828 112.607 47.4609 116.018 49.3071L118.833 44.0433C119.684 42.5221 120.113 40.8006 120.074 39.0577C120.034 37.3148 119.529 35.6143 118.61 34.1328Z" fill="#BC7764"/>
<path d="M87.0149 45.5207L83.5891 35.8298C82.2638 32.3106 79.0543 30.0031 75.4863 30.0031H74.757C73.2956 30.0178 71.8621 30.4047 70.5916 31.127C69.3212 31.8494 68.2557 32.8835 67.4957 34.1318C66.5771 35.6131 66.072 37.3134 66.033 39.056C65.9939 40.7985 66.4222 42.5198 67.2735 44.0408L71.5899 52.1076C76.1389 48.7234 81.4258 46.4665 87.0164 45.5222L87.0149 45.5207Z" fill="#D18D78"/>
<path d="M83.5897 35.8283C83.1382 34.5921 82.4198 33.4706 81.4856 32.5435C80.5515 31.6165 79.4244 30.9067 78.1848 30.4647C76.2436 31.1024 74.5868 32.3994 73.5017 34.1307C72.5831 35.612 72.078 37.3123 72.039 39.0548C71.9999 40.7974 72.4282 42.5186 73.2795 44.0396L76.0945 49.3027C79.505 47.4569 83.1933 46.179 87.0147 45.5192L83.5897 35.8283Z" fill="#BC7764"/>
<path d="M138.094 137.487C133.453 139.882 128.303 141.122 123.081 141.103C115.182 137.153 106.472 135.097 97.6414 135.097H94.4713C85.6403 135.097 76.9306 137.153 69.0319 141.103C63.8094 141.122 58.6593 139.882 54.0183 137.487V144.105C54.0183 148.884 55.9165 153.466 59.2952 156.845C62.6739 160.224 67.2564 162.122 72.0346 162.122H120.078C124.856 162.122 129.439 160.224 132.818 156.845C136.196 153.466 138.094 148.884 138.094 144.105V137.487V137.487Z" fill="#D18D78"/>
<path d="M135.066 79.82C134.753 70.4796 130.82 61.6266 124.1 55.1319C117.38 48.6372 108.398 45.0094 99.0525 45.0151H93.047C83.7011 45.0089 74.7188 48.6365 67.9985 55.1314C61.2782 61.6263 57.3464 70.4797 57.0339 79.8204C57.3665 79.4238 57.7326 79.0194 58.1322 78.6073C60.2288 76.4491 63.0191 75.0416 66.0278 75.0416C69.2125 75.043 72.2663 76.3091 74.5177 78.5616C76.769 80.8141 78.0337 83.8685 78.0335 87.0532C78.0137 87.4643 77.9724 87.8742 77.9096 88.2809L84.3737 86.0289C88.1273 84.7197 92.0744 84.0509 96.0498 84.0505C100.025 84.0504 103.972 84.7187 107.726 86.0274L114.19 88.2794C114.127 87.8732 114.086 87.4638 114.066 87.0532C114.066 83.8686 115.331 80.8144 117.582 78.5621C119.833 76.3098 122.887 75.0437 126.072 75.0423C129.08 75.0423 131.871 76.4491 133.967 78.6081C134.368 79.0202 134.734 79.4244 135.066 79.8208V79.82Z" fill="#E0A089"/>
<path d="M126.076 75.043C129.085 75.043 131.875 76.4498 133.971 78.6087C134.034 78.6733 134.084 78.7348 134.144 78.799C132.283 70.8913 127.805 63.8444 121.436 58.802C115.067 53.7596 107.18 51.0177 99.0566 51.0212H93.0511C84.9274 51.0172 77.0407 53.7589 70.6713 58.8014C64.3019 63.8439 59.8237 70.8911 57.9636 78.799C58.0248 78.7345 58.0736 78.6725 58.1367 78.608C60.2329 76.4498 63.0232 75.0422 66.0319 75.0422C69.2166 75.0436 72.2704 76.3098 74.5218 78.5623C76.7731 80.8148 78.0377 83.8692 78.0375 87.0539C78.0178 87.465 77.9765 87.8748 77.9137 88.2816L84.3778 86.0296C91.9387 83.3937 100.169 83.3937 107.73 86.0296L114.194 88.2816C114.131 87.8748 114.09 87.465 114.07 87.0539C114.07 83.8693 115.335 80.8151 117.586 78.5628C119.838 76.3104 122.891 75.0444 126.076 75.043Z" fill="#CC8C79"/>
<path d="M123.079 141.103C115.181 137.154 106.471 135.098 97.6398 135.098H94.4697C85.6387 135.098 76.9289 137.154 69.0302 141.103C52.4466 141.103 39.0031 129.004 39.0031 114.079C39.0031 103.881 45.2844 95.0083 54.55 90.4074C53.5786 87.0826 53.4991 83.3833 58.1371 78.6082C60.2338 76.45 63.0241 75.0425 66.0328 75.0425C69.2175 75.0439 72.2713 76.31 74.5226 78.5625C76.774 80.815 78.0386 83.8694 78.0384 87.0541C78.0187 87.4652 77.9773 87.8751 77.9145 88.2818L84.3786 86.0298C88.1323 84.7206 92.0793 84.0518 96.0547 84.0514C100.03 84.0513 103.977 84.7196 107.731 86.0283L114.195 88.2803C114.132 87.874 114.091 87.4647 114.071 87.0541C114.071 83.8695 115.336 80.8153 117.587 78.563C119.838 76.3107 122.892 75.0446 126.077 75.0432C129.085 75.0432 131.876 76.45 133.972 78.609C138.611 83.384 138.531 87.0834 137.559 90.4081C146.825 95.0083 153.106 103.881 153.106 114.079C153.106 129.004 139.663 141.103 123.079 141.103Z" fill="#E0A089"/>
<path d="M39.7946 108.154C42.8675 120.144 54.7744 129.092 69.0287 129.092C76.9273 125.143 85.6371 123.087 94.4681 123.087H97.6382C106.469 123.087 115.179 125.143 123.078 129.092C137.332 129.092 149.239 120.144 152.312 108.154C150.405 100.519 144.967 94.0869 137.558 90.4074C138.529 87.0826 138.609 83.3833 133.97 78.6082C131.874 76.45 129.084 75.0425 126.075 75.0425C122.89 75.0439 119.837 76.31 117.585 78.5625C115.334 80.815 114.069 83.8694 114.069 87.0541C114.089 87.4652 114.131 87.8751 114.193 88.2818L107.729 86.0298C100.168 83.394 91.938 83.394 84.3771 86.0298L77.9129 88.2818C77.9757 87.8751 78.0171 87.4652 78.0368 87.0541C78.0368 83.8695 76.7721 80.8153 74.5208 78.563C72.2694 76.3107 69.2158 75.0446 66.0312 75.0432C63.0225 75.0432 60.2322 76.45 58.1359 78.609C53.4971 83.384 53.577 87.0834 54.5484 90.4081C47.1388 94.0869 41.7013 100.519 39.7946 108.154Z" fill="#F2B9A1"/>
<path d="M78.0419 150.112H84.0474C85.6401 150.112 87.1676 149.479 88.2939 148.353C89.4201 147.227 90.0528 145.699 90.0528 144.106V135.292C83.846 135.769 77.7596 137.261 72.0365 139.71V144.106C72.0365 145.699 72.6692 147.227 73.7955 148.353C74.9217 149.479 76.4492 150.112 78.0419 150.112Z" fill="#E2E7F6"/>
<path d="M81.0374 144.106H87.0429C88.1 144.101 89.1365 143.813 90.0456 143.274V135.292C84.9324 135.7 79.8976 136.796 75.0774 138.55C75.1859 140.057 75.8606 141.468 76.9661 142.499C78.0716 143.529 79.526 144.104 81.0374 144.106Z" fill="#F2F2F2"/>
<path d="M120.071 139.71C114.348 137.261 108.261 135.769 102.055 135.292V144.106C102.055 145.699 102.687 147.227 103.814 148.353C104.94 149.479 106.467 150.112 108.06 150.112H114.065C115.658 150.112 117.186 149.479 118.312 148.353C119.438 147.227 120.071 145.699 120.071 144.106V139.71Z" fill="#E2E7F6"/>
<path d="M105.057 144.106H111.063C112.574 144.104 114.028 143.53 115.134 142.499C116.239 141.469 116.914 140.059 117.023 138.551C112.203 136.797 107.168 135.7 102.055 135.292V143.274C102.964 143.813 104 144.101 105.057 144.106Z" fill="#F2F2F2"/>
<path d="M72.0355 120.083C77.0106 120.083 81.0437 116.05 81.0437 111.075C81.0437 106.1 77.0106 102.067 72.0355 102.067C67.0604 102.067 63.0273 106.1 63.0273 111.075C63.0273 116.05 67.0604 120.083 72.0355 120.083Z" fill="#A35F4F"/>
<path d="M72.0363 102.067C71.1597 102.079 70.2898 102.221 69.4547 102.488C69.188 103.323 69.0461 104.193 69.0336 105.069C69.0336 107.459 69.9826 109.75 71.672 111.439C73.3614 113.129 75.6526 114.078 78.0417 114.078C78.9183 114.065 79.7882 113.923 80.6233 113.657C80.89 112.821 81.0319 111.952 81.0444 111.075C81.0444 108.686 80.0954 106.395 78.406 104.705C76.7167 103.016 74.4254 102.067 72.0363 102.067Z" fill="#BC7764"/>
<path d="M120.073 120.086C125.048 120.086 129.081 116.053 129.081 111.078C129.081 106.103 125.048 102.07 120.073 102.07C115.098 102.07 111.065 106.103 111.065 111.078C111.065 116.053 115.098 120.086 120.073 120.086Z" fill="#A35F4F"/>
<path d="M120.073 102.067C119.196 102.079 118.326 102.221 117.491 102.488C117.224 103.323 117.082 104.193 117.07 105.069C117.07 107.459 118.019 109.75 119.708 111.439C121.398 113.129 123.689 114.078 126.078 114.078C126.955 114.065 127.824 113.923 128.66 113.657C128.926 112.821 129.068 111.952 129.081 111.075C129.081 108.686 128.132 106.395 126.442 104.705C124.753 103.016 122.462 102.067 120.073 102.067Z" fill="#BC7764"/>
<path d="M140.975 88.8433C141.378 86.0072 140.949 82.592 137.985 78.6926C137.691 73.4409 136.332 68.3039 133.991 63.5937C131.65 58.8835 128.375 54.6984 124.367 51.2928L127.452 45.5196C128.562 43.5246 129.12 41.2699 129.068 38.9876C129.017 36.7054 128.358 34.4781 127.159 32.5351C126.131 30.8542 124.691 29.4636 122.976 28.4949C121.26 27.5263 119.325 27.0117 117.355 27H116.625C111.775 27 107.491 30.0496 105.692 34.8277L103.078 42.2197C101.742 42.0836 100.4 42.0149 99.0571 42.0136H93.0517C91.7086 42.0149 90.3664 42.0836 89.0303 42.2197L86.3969 34.7695C84.6182 30.0496 80.334 27 75.4858 27H74.7538C72.7838 27.0115 70.8493 27.5258 69.1335 28.4941C67.4178 29.4624 65.9777 30.8527 64.9496 32.5333C63.7546 34.4653 63.0946 36.6802 63.0372 38.9512C62.9797 41.2223 63.5269 43.4677 64.6227 45.4577L67.7432 51.2897C63.7341 54.6956 60.4593 58.8811 58.1179 63.5918C55.7765 68.3026 54.4175 73.4403 54.1233 78.6926C51.1581 82.592 50.731 86.0072 51.1337 88.8433C41.7427 94.3487 36 103.829 36 114.079C36 124.594 41.9874 133.848 51.0136 139.213V144.106C51.0199 149.679 53.2364 155.021 57.1768 158.962C61.1173 162.902 66.46 165.119 72.0326 165.125H120.076C125.649 165.119 130.991 162.902 134.932 158.962C138.872 155.021 141.089 149.679 141.095 144.106V139.213C150.121 133.848 156.109 124.594 156.109 114.079C156.109 103.829 150.366 94.3487 140.975 88.8433ZM111.333 36.888C112.22 34.5289 114.299 33.0054 116.626 33.0054H117.356C118.308 33.0202 119.242 33.2779 120.067 33.7541C120.892 34.2303 121.583 34.9092 122.072 35.7267C122.707 36.761 123.052 37.9464 123.073 39.1596C123.094 40.3728 122.79 41.5694 122.191 42.625L119.455 47.742C116.223 45.7717 112.719 44.286 109.056 43.3322L111.333 36.888ZM69.8846 42.565C69.2999 41.5144 69.0059 40.327 69.0327 39.1251C69.0596 37.9231 69.4064 36.75 70.0373 35.7267C70.527 34.9092 71.2172 34.2303 72.0425 33.7541C72.8679 33.2779 73.8011 33.0202 74.7538 33.0054H75.4858C76.6496 33.0291 77.7784 33.4083 78.7206 34.092C79.6628 34.7757 80.3733 35.7313 80.7567 36.8305L83.0549 43.3318C79.3924 44.2858 75.8895 45.7714 72.6579 47.7413L69.8846 42.565ZM93.0517 48.019H99.0571C106.442 47.9878 113.622 50.445 119.439 54.9943C125.256 59.5436 129.371 65.9198 131.121 73.0944C129.527 72.4128 127.814 72.0546 126.082 72.0408H126.076C122.607 72.0475 119.247 73.2529 116.565 75.453C113.883 77.6531 112.043 80.7125 111.358 84.1132L108.721 83.1925C100.517 80.3481 91.5948 80.3481 83.3912 83.1925L80.7533 84.1132C80.0684 80.7123 78.229 77.6526 75.5466 75.4525C72.8643 73.2524 69.5039 72.0471 66.0347 72.0408H66.0272C64.2937 72.0545 62.5802 72.4126 60.9864 73.0944C62.7359 65.9195 66.8513 59.5432 72.6688 54.9938C78.4863 50.4445 85.6666 47.9875 93.0517 48.019ZM135.09 144.106C135.085 148.086 133.502 151.903 130.687 154.717C127.873 157.532 124.057 159.115 120.076 159.12H72.0326C68.0522 159.115 64.2362 157.532 61.4216 154.717C58.607 151.903 57.0237 148.086 57.019 144.106V142.021C60.8735 143.399 64.9364 144.105 69.0299 144.106C69.0326 146.494 69.9825 148.784 71.6713 150.473C73.3601 152.162 75.6498 153.112 78.0381 153.114H84.0435C86.4318 153.112 88.7215 152.162 90.4103 150.473C92.0991 148.784 93.049 146.494 93.0517 144.106V138.142C93.5242 138.13 93.9968 138.101 94.4693 138.101H97.6394C98.112 138.101 98.5845 138.13 99.0571 138.142V144.106C99.0598 146.494 100.01 148.784 101.698 150.473C103.387 152.162 105.677 153.112 108.065 153.114H114.071C116.459 153.112 118.749 152.162 120.437 150.473C122.126 148.784 123.076 146.494 123.079 144.106C127.172 144.105 131.235 143.399 135.09 142.021V144.106ZM75.0353 141.753C78.9069 140.26 82.9368 139.216 87.0462 138.641V144.106C87.0451 144.902 86.7284 145.665 86.1655 146.228C85.6027 146.791 84.8395 147.108 84.0435 147.109H78.0381C77.242 147.108 76.4789 146.791 75.916 146.228C75.3531 145.665 75.0364 144.902 75.0353 144.106V141.753ZM105.063 138.641C109.172 139.216 113.202 140.26 117.073 141.753V144.106C117.072 144.902 116.756 145.665 116.193 146.228C115.63 146.791 114.867 147.108 114.071 147.109H108.065C107.269 147.108 106.506 146.791 105.943 146.228C105.38 145.665 105.064 144.902 105.063 144.106V138.641ZM123.762 138.093C115.616 134.156 106.686 132.106 97.6383 132.095H94.4682C85.4202 132.106 76.491 134.156 68.3445 138.093C53.7596 137.769 42.0054 127.122 42.0054 114.079C42.0054 105.387 47.3233 97.3485 55.8855 93.0974C56.517 92.7839 57.018 92.2583 57.3009 91.6125C57.5838 90.9668 57.6304 90.2421 57.4327 89.5654C56.757 87.262 56.4252 84.6815 60.2901 80.7006C61.9529 78.9898 63.9906 78.047 66.0287 78.047H66.0317C68.419 78.0511 70.7073 79.0015 72.3951 80.6899C74.0828 82.3784 75.0323 84.6671 75.0353 87.0544C75.0292 87.195 75.014 87.335 74.9899 87.4736L74.9269 87.9811C74.8763 88.4833 74.9532 88.9902 75.1504 89.4548C75.3476 89.9195 75.6587 90.3269 76.0551 90.6395C76.4514 90.9521 76.9202 91.1597 77.418 91.2432C77.9158 91.3267 78.4266 91.2833 78.9032 91.1171L85.3658 88.865C92.2892 86.4636 99.8195 86.4636 106.743 88.865L113.206 91.1171C113.682 91.2833 114.193 91.3267 114.691 91.2432C115.189 91.1597 115.657 90.9521 116.054 90.6395C116.45 90.3269 116.761 89.9195 116.958 89.4548C117.156 88.9902 117.232 88.4833 117.182 87.9811L117.119 87.4736C117.095 87.335 117.08 87.195 117.073 87.0544C117.076 84.6669 118.026 82.378 119.713 80.6894C121.401 79.0008 123.69 78.0503 126.077 78.0462H126.082C128.12 78.0462 130.157 78.9891 131.82 80.6999C135.686 84.6807 135.352 87.2612 134.678 89.5647C134.48 90.2413 134.526 90.966 134.809 91.6118C135.092 92.2575 135.593 92.7832 136.225 93.0966C144.786 97.3485 150.103 105.387 150.103 114.079C150.103 127.122 138.349 137.769 123.762 138.093Z" fill="black"/>
<path d="M72.0353 99.0669C69.6598 99.0669 67.3376 99.7713 65.3624 101.091C63.3872 102.411 61.8478 104.287 60.9387 106.481C60.0296 108.676 59.7918 111.091 60.2552 113.421C60.7186 115.751 61.8626 117.891 63.5423 119.571C65.2221 121.25 67.3622 122.394 69.6921 122.858C72.022 123.321 74.437 123.083 76.6317 122.174C78.8264 121.265 80.7022 119.726 82.022 117.751C83.3417 115.775 84.0462 113.453 84.0462 111.078C84.0426 107.893 82.776 104.84 80.5243 102.589C78.2726 100.337 75.2197 99.0705 72.0353 99.0669ZM72.0353 117.083C70.8475 117.083 69.6864 116.731 68.6989 116.071C67.7113 115.411 66.9415 114.473 66.487 113.376C66.0325 112.279 65.9135 111.071 66.1453 109.906C66.377 108.741 66.9489 107.671 67.7888 106.831C68.6287 105.991 69.6988 105.419 70.8637 105.188C72.0286 104.956 73.2361 105.075 74.3335 105.529C75.4308 105.984 76.3688 106.754 77.0286 107.741C77.6885 108.729 78.0407 109.89 78.0407 111.078C78.0391 112.67 77.4059 114.197 76.28 115.322C75.1541 116.448 73.6276 117.082 72.0353 117.083Z" fill="black"/>
<path d="M120.072 99.0669C117.696 99.0669 115.374 99.7713 113.399 101.091C111.423 102.411 109.884 104.287 108.975 106.481C108.066 108.676 107.828 111.091 108.291 113.421C108.755 115.751 109.899 117.891 111.579 119.571C113.258 121.25 115.398 122.394 117.728 122.858C120.058 123.321 122.473 123.083 124.668 122.174C126.863 121.265 128.738 119.726 130.058 117.751C131.378 115.775 132.082 113.453 132.082 111.078C132.079 107.893 130.812 104.84 128.561 102.589C126.309 100.337 123.256 99.0705 120.072 99.0669ZM120.072 117.083C118.884 117.083 117.723 116.731 116.735 116.071C115.748 115.411 114.978 114.473 114.523 113.376C114.069 112.279 113.95 111.071 114.182 109.906C114.413 108.741 114.985 107.671 115.825 106.831C116.665 105.991 117.735 105.419 118.9 105.188C120.065 104.956 121.272 105.075 122.37 105.529C123.467 105.984 124.405 106.754 125.065 107.741C125.725 108.729 126.077 109.89 126.077 111.078C126.075 112.67 125.442 114.197 124.316 115.322C123.19 116.448 121.664 117.082 120.072 117.083Z" fill="black"/>
<circle cx="86.0261" cy="67.7626" r="5.55835" fill="black"/>
<circle cx="104.56" cy="67.7626" r="5.55835" fill="black"/>
<rect x="109" y="109" width="74" height="80" rx="37" fill="#4896AE"/>
<mask id="mask0_5971_2564" style="mask-type:luminance" maskUnits="userSpaceOnUse" x="114" y="117" width="64" height="64">
<path d="M114 117H178V181H114V117Z" fill="white"/>
</mask>
<g mask="url(#mask0_5971_2564)">
<path d="M169.668 161.23H122.581C124.739 161.23 125.959 160.101 126.651 158.23C130.001 149.195 121.079 122.864 146.125 122.864C171.171 122.864 162.248 149.195 165.598 158.23C166.291 160.101 167.511 161.23 169.668 161.23Z" fill="#F7C421"/>
<path d="M174.226 165.789C174.226 168.306 172.185 170.348 169.668 170.348H122.581C121.323 170.348 120.183 169.838 119.358 169.013C118.533 168.188 118.023 167.048 118.023 165.789C118.023 163.271 120.064 161.23 122.581 161.23H169.668C170.926 161.23 172.066 161.74 172.891 162.565C173.716 163.39 174.226 164.53 174.226 165.789Z" fill="#E5AE13"/>
<path d="M165.598 158.23H141.124C138.486 158.23 136.376 156.046 136.458 153.409C136.803 142.251 135.023 123.076 145.942 122.865C115.971 123.02 135.129 161.23 122.582 161.23H123.831H133.923H169.668C167.511 161.23 166.291 160.101 165.598 158.23Z" fill="#E5AE13"/>
<path d="M174.226 165.789C174.226 168.306 172.185 170.348 169.668 170.348H135.755C134.496 170.348 133.356 169.838 132.531 169.013C131.706 168.188 131.196 167.048 131.196 165.789C131.196 163.271 133.238 161.23 135.755 161.23H169.668C170.926 161.23 172.066 161.74 172.891 162.565C173.716 163.39 174.226 164.53 174.226 165.789Z" fill="#F7C421"/>
<path d="M155.242 170.348C155.242 174.54 152.414 178.07 148.562 179.136C147.786 179.351 146.969 179.466 146.125 179.466C141.089 179.466 137.006 175.384 137.006 170.348H155.242Z" fill="#E5AE13"/>
<path d="M154.801 173.16C153.863 176.058 151.513 178.32 148.563 179.136C146.708 178.623 145.091 177.539 143.912 176.085C142.962 174.913 143.819 173.16 145.328 173.16H154.801Z" fill="#F7C421"/>
<path d="M150.759 123.213C150.769 123.098 150.773 122.981 150.773 122.864C150.773 120.298 148.691 118.216 146.125 118.216C143.558 118.216 141.478 120.298 141.478 122.864C141.478 122.981 141.481 123.098 141.491 123.213" fill="#E5AE13"/>
<path d="M132.266 170.348H169.667C172.185 170.348 174.227 168.307 174.227 165.789C174.227 163.271 172.185 161.23 169.667 161.23H122.582C120.064 161.23 118.023 163.271 118.023 165.789C118.023 168.307 120.064 170.348 122.582 170.348H128.516" stroke="black" stroke-width="1.875" stroke-miterlimit="10" stroke-linecap="round" stroke-linejoin="round"/>
<path d="M162.449 131.762C160.187 126.61 155.572 122.864 146.125 122.864C115.892 122.864 135.154 161.23 122.582 161.23" stroke="black" stroke-width="1.875" stroke-miterlimit="10" stroke-linecap="round" stroke-linejoin="round"/>
<path d="M169.668 161.23C161.851 161.23 166.34 146.399 163.589 135.179" stroke="black" stroke-width="1.875" stroke-miterlimit="10" stroke-linecap="round" stroke-linejoin="round"/>
<path d="M137.006 170.348C137.006 175.384 141.089 179.466 146.125 179.466C151.16 179.466 155.243 175.384 155.243 170.348" stroke="black" stroke-width="1.875" stroke-miterlimit="10" stroke-linecap="round" stroke-linejoin="round"/>
<path d="M150.759 123.213C150.769 123.098 150.773 122.981 150.773 122.864C150.773 120.298 148.691 118.216 146.125 118.216C143.558 118.216 141.478 120.298 141.478 122.864C141.478 122.981 141.481 123.098 141.491 123.213" stroke="black" stroke-width="1.875" stroke-miterlimit="10" stroke-linecap="round" stroke-linejoin="round"/>
<path d="M161.634 122.344C161.634 122.344 168.759 126.281 168.759 137.343" stroke="black" stroke-width="1.875" stroke-miterlimit="10" stroke-linecap="round" stroke-linejoin="round"/>
<path d="M168.759 122.718C168.759 122.718 172.884 125.343 172.884 131.968" stroke="black" stroke-width="1.875" stroke-miterlimit="10" stroke-linecap="round" stroke-linejoin="round"/>
<path d="M130.615 122.344C130.615 122.344 123.49 126.281 123.49 137.343" stroke="black" stroke-width="1.875" stroke-miterlimit="10" stroke-linecap="round" stroke-linejoin="round"/>
<path d="M123.49 122.718C123.49 122.718 119.365 125.343 119.365 131.968" stroke="black" stroke-width="1.875" stroke-miterlimit="10" stroke-linecap="round" stroke-linejoin="round"/>
</g>
</svg>
